<svg xmlns="http://www.w3.org/2000/svg" width="12" height="17" viewBox="0 0 12 17">
  <defs>
    <style>
      .cls-1 {
        fill: #555;
        fill-rule: evenodd;
      }
    </style>
  </defs>
  <path id="fa-map-marker" class="cls-1" d="M239,5772.67a3,3,0,1,1-3-2.84A2.924,2.924,0,0,1,239,5772.67Zm3,0a6.01,6.01,0,0,0-12,0,4.423,4.423,0,0,0,.387,1.98l4.277,8.56A1.473,1.473,0,0,0,236,5784a1.506,1.506,0,0,0,1.348-.79l4.265-8.56A4.423,4.423,0,0,0,242,5772.67Z" transform="translate(-230 -5767)"/>
</svg>
