<svg xmlns="http://www.w3.org/2000/svg" width="15" height="11" viewBox="0 0 15 11">
  <defs>
    <style>
      .cls-1 {
        fill: #555;
        fill-rule: evenodd;
      }
    </style>
  </defs>
  <path id="fa-envelope-o" class="cls-1" d="M242.929,5977.75a0.269,0.269,0,0,1-.268.25H230.339a0.269,0.269,0,0,1-.268-0.25v-6a4.549,4.549,0,0,0,.578.52c1.2,0.85,2.4,1.73,3.566,2.64a3.987,3.987,0,0,0,2.277,1.09h0.016a3.987,3.987,0,0,0,2.277-1.09c1.164-.91,2.369-1.79,3.566-2.64a4.549,4.549,0,0,0,.578-0.52v6Zm0-8.21a3.029,3.029,0,0,1-1.231,1.93c-1.122.82-2.243,1.65-3.357,2.47a4.152,4.152,0,0,1-1.833,1.06h-0.016a4.16,4.16,0,0,1-1.834-1.06c-1.113-.82-2.235-1.65-3.356-2.47a2.774,2.774,0,0,1-1.231-2.22,0.269,0.269,0,0,1,.268-0.25h12.322C242.979,5969,242.929,5969.34,242.929,5969.54Zm1.071-.29a1.3,1.3,0,0,0-1.339-1.25H230.339a1.3,1.3,0,0,0-1.339,1.25v8.5a1.3,1.3,0,0,0,1.339,1.25h12.322a1.3,1.3,0,0,0,1.339-1.25v-8.5Z" transform="translate(-229 -5968)"/>
</svg>
