<svg id="Group_5_copy_2" data-name="Group 5 copy 2" xmlns="http://www.w3.org/2000/svg" width="37" height="37" viewBox="0 0 37 37">
  <defs>
    <style>
      .cls-1 {
        fill: none;
        stroke: #fff;
        stroke-width: 2px;
      }

      .cls-2 {
        fill: #fff;
        fill-rule: evenodd;
      }
    </style>
  </defs>
  <circle class="cls-1" cx="18.5" cy="18.5" r="17.5"/>
  <path id="fa-twitter" class="cls-2" d="M833,6278.42a6.613,6.613,0,0,1-1.888.47,3.036,3.036,0,0,0,1.441-1.67,6.951,6.951,0,0,1-2.081.74,3.409,3.409,0,0,0-2.4-.96,3.16,3.16,0,0,0-3.279,3.03,3.115,3.115,0,0,0,.081.69,9.581,9.581,0,0,1-6.761-3.17,2.839,2.839,0,0,0-.447,1.53,2.966,2.966,0,0,0,1.462,2.52,3.6,3.6,0,0,1-1.482-.38v0.04a3.1,3.1,0,0,0,2.629,2.97,4.068,4.068,0,0,1-.863.1,4.192,4.192,0,0,1-.619-0.05,3.252,3.252,0,0,0,3.066,2.1,7.139,7.139,0,0,1-4.863,1.26,9.859,9.859,0,0,0,5.036,1.36,8.907,8.907,0,0,0,9.329-8.62c0-.13,0-0.26-0.01-0.39A6.775,6.775,0,0,0,833,6278.42Z" transform="translate(-806 -6265)"/>
</svg>
