<svg xmlns="http://www.w3.org/2000/svg" width="12" height="20" viewBox="0 0 12 20">
  <defs>
    <style>
      .cls-1 {
        fill: #555;
        fill-rule: evenodd;
      }
    </style>
  </defs>
  <path id="fa-mobile-phone" class="cls-1" d="M236.25,5885a1.25,1.25,0,1,1-1.25-1.25A1.252,1.252,0,0,1,236.25,5885Zm3.25-2.5a0.511,0.511,0,0,1-.5.5h-8a0.511,0.511,0,0,1-.5-0.5v-11a0.511,0.511,0,0,1,.5-0.5h8a0.511,0.511,0,0,1,.5.5v11Zm-3-13.25a0.247,0.247,0,0,1-.25.25h-2.5a0.25,0.25,0,0,1,0-.5h2.5A0.247,0.247,0,0,1,236.5,5869.25Zm4.5-.25a2.016,2.016,0,0,0-2-2h-8a2.016,2.016,0,0,0-2,2v16a2.016,2.016,0,0,0,2,2h8a2.016,2.016,0,0,0,2-2v-16Z" transform="translate(-229 -5867)"/>
</svg>
